<svg width="702" height="820" viewBox="0 0 702 820" fill="none" xmlns="http://www.w3.org/2000/svg">
<g clip-path="url(#clip0_85_4)">
<g filter="url(#filter0_d_85_4)">
<path d="M321.65 448.885C333.112 402.525 332.115 314.589 134.847 471.824C134.847 471.824 -32.1903 584.253 5.55233 696.267C43.2949 808.28 21.488 815.358 100.226 780.344C178.964 745.33 553.976 818.617 639.106 793.253C724.237 767.888 681.042 744.533 681.042 744.533C681.042 744.533 637.009 727.044 582.073 712.47C527.137 697.896 556.911 682.072 630.3 616.28C703.688 550.488 595.912 448.885 603.88 402.248C611.848 355.61 556.912 408.91 501.137 390.589C445.362 372.267 507.847 347.699 481.427 328.128C455.007 308.557 415.587 360.191 321.65 448.885Z" fill="#2086FE"/>
<path d="M681.042 744.533L681.28 744.093L681.254 744.079L681.227 744.069L681.042 744.533ZM681.042 744.533C681.28 744.093 681.281 744.094 681.281 744.094L681.283 744.095L681.29 744.099L681.316 744.113L681.359 744.137L681.411 744.166C681.493 744.213 681.613 744.282 681.764 744.373C682.067 744.554 682.497 744.823 683.013 745.172C684.044 745.872 685.422 746.9 686.806 748.216C689.561 750.836 692.416 754.668 692.498 759.373C692.581 764.105 689.858 769.538 681.867 775.344C673.878 781.149 660.553 787.384 639.249 793.732C628.543 796.922 613.318 798.552 594.752 799.044C576.177 799.536 554.222 798.89 530.036 797.512C487.447 795.084 437.913 790.383 387.697 785.617C380.879 784.97 374.049 784.321 367.222 783.677C310.102 778.29 253.198 773.206 205.656 771.656C181.885 770.881 160.465 770.99 142.535 772.385C124.593 773.78 110.191 776.46 100.429 780.801C98.8441 781.506 97.2992 782.194 95.7934 782.865C78.6252 790.511 66.5386 795.894 57.6495 798.214C52.8078 799.478 48.8577 799.85 45.5186 799.153C42.1589 798.452 39.4645 796.679 37.1253 793.753C34.7981 790.841 32.8191 786.785 30.8638 781.499C28.907 776.21 26.9607 769.653 24.7141 761.719C24.0267 759.292 23.3109 756.734 22.5577 754.043C18.3857 739.137 13.0671 720.135 5.07851 696.426C-13.8864 640.142 18.6146 583.836 55.6709 541.71C74.2153 520.629 93.9375 503.056 109.021 490.754C116.564 484.602 122.948 479.768 127.448 476.47C129.698 474.822 131.477 473.557 132.694 472.704C133.302 472.278 133.77 471.955 134.086 471.738C134.244 471.629 134.365 471.547 134.445 471.492L134.537 471.43L134.551 471.421C183.874 432.109 220.953 408.1 248.655 394.935C276.337 381.78 294.754 379.404 306.686 383.534C318.68 387.685 323.959 398.339 325.534 410.737C327.036 422.555 325.195 436.065 322.531 447.364C342.713 428.282 360.372 410.924 375.918 395.643C396.03 375.873 412.605 359.58 426.53 347.529C438.986 336.749 449.38 329.309 458.344 325.801C467.341 322.281 474.949 322.706 481.725 327.726C485.086 330.216 487.072 332.815 488.042 335.51C489.012 338.205 488.947 340.945 488.296 343.683C487.646 346.414 486.408 349.162 485.012 351.888C484.403 353.079 483.77 354.253 483.141 355.422C482.311 356.963 481.485 358.495 480.722 360.047C478.053 365.477 476.403 370.683 478.696 375.642C481.001 380.625 487.371 385.54 501.293 390.114C527.022 398.566 552.58 391.688 571.914 386.485C573.409 386.083 574.867 385.691 576.284 385.316C581.212 384.015 585.667 382.928 589.511 382.399C593.345 381.872 596.638 381.891 599.207 382.86C601.819 383.844 603.634 385.791 604.522 388.974C605.4 392.122 605.373 396.477 604.373 402.332C603.394 408.06 604.188 414.667 606.219 422.003C608.25 429.335 611.507 437.358 615.421 445.905C618.593 452.83 622.19 460.086 625.908 467.586C626.779 469.342 627.656 471.113 628.536 472.895C633.173 482.283 637.883 492.008 642.083 501.885C650.478 521.633 656.854 542.037 656.512 561.649C656.169 581.287 649.089 600.108 630.633 616.653C621.457 624.879 612.963 632.324 605.233 639.082C604.301 639.896 603.381 640.7 602.472 641.494C595.835 647.294 589.798 652.57 584.411 657.389C572.152 668.358 563.311 676.922 558.475 683.868C556.058 687.338 554.674 690.36 554.336 693.04C554.002 695.694 554.688 698.047 556.497 700.224C558.321 702.422 561.3 704.454 565.569 706.396C569.833 708.335 575.347 710.168 582.201 711.987C609.685 719.278 634.439 727.298 652.323 733.494C661.265 736.593 668.489 739.236 673.479 741.105C675.974 742.039 677.91 742.78 679.223 743.287C679.88 743.54 680.38 743.736 680.717 743.868C680.885 743.934 681.013 743.984 681.098 744.017L681.194 744.056L681.219 744.065L681.225 744.068L681.227 744.068C681.227 744.068 681.227 744.069 681.042 744.533Z" stroke="#2086FE"/>
</g>
<path opacity="0.7" d="M87.6953 636.938H89.8867L95.4766 650.848L101.055 636.938H103.258L96.3203 654H94.6094L87.6953 636.938ZM86.9805 636.938H88.9141L89.2305 647.344V654H86.9805V636.938ZM102.027 636.938H103.961V654H101.711V647.344L102.027 636.938ZM115.363 651.07V641.32H117.543V654H115.469L115.363 651.07ZM115.773 648.398L116.676 648.375C116.676 649.219 116.586 650 116.406 650.719C116.234 651.43 115.953 652.047 115.562 652.57C115.172 653.094 114.66 653.504 114.027 653.801C113.395 654.09 112.625 654.234 111.719 654.234C111.102 654.234 110.535 654.145 110.02 653.965C109.512 653.785 109.074 653.508 108.707 653.133C108.34 652.758 108.055 652.27 107.852 651.668C107.656 651.066 107.559 650.344 107.559 649.5V641.32H109.727V649.523C109.727 650.094 109.789 650.566 109.914 650.941C110.047 651.309 110.223 651.602 110.441 651.82C110.668 652.031 110.918 652.18 111.191 652.266C111.473 652.352 111.762 652.395 112.059 652.395C112.98 652.395 113.711 652.219 114.25 651.867C114.789 651.508 115.176 651.027 115.41 650.426C115.652 649.816 115.773 649.141 115.773 648.398ZM123.203 641.32V654H121.023V641.32H123.203ZM120.859 637.957C120.859 637.605 120.965 637.309 121.176 637.066C121.395 636.824 121.715 636.703 122.137 636.703C122.551 636.703 122.867 636.824 123.086 637.066C123.312 637.309 123.426 637.605 123.426 637.957C123.426 638.293 123.312 638.582 123.086 638.824C122.867 639.059 122.551 639.176 122.137 639.176C121.715 639.176 121.395 639.059 121.176 638.824C120.965 638.582 120.859 638.293 120.859 637.957ZM131.992 641.32V642.984H125.137V641.32H131.992ZM127.457 638.238H129.625V650.859C129.625 651.289 129.691 651.613 129.824 651.832C129.957 652.051 130.129 652.195 130.34 652.266C130.551 652.336 130.777 652.371 131.02 652.371C131.199 652.371 131.387 652.355 131.582 652.324C131.785 652.285 131.938 652.254 132.039 652.23L132.051 654C131.879 654.055 131.652 654.105 131.371 654.152C131.098 654.207 130.766 654.234 130.375 654.234C129.844 654.234 129.355 654.129 128.91 653.918C128.465 653.707 128.109 653.355 127.844 652.863C127.586 652.363 127.457 651.691 127.457 650.848V638.238ZM133.727 647.801V647.531C133.727 646.617 133.859 645.77 134.125 644.988C134.391 644.199 134.773 643.516 135.273 642.938C135.773 642.352 136.379 641.898 137.09 641.578C137.801 641.25 138.598 641.086 139.48 641.086C140.371 641.086 141.172 641.25 141.883 641.578C142.602 641.898 143.211 642.352 143.711 642.938C144.219 643.516 144.605 644.199 144.871 644.988C145.137 645.77 145.27 646.617 145.27 647.531V647.801C145.27 648.715 145.137 649.562 144.871 650.344C144.605 651.125 144.219 651.809 143.711 652.395C143.211 652.973 142.605 653.426 141.895 653.754C141.191 654.074 140.395 654.234 139.504 654.234C138.613 654.234 137.812 654.074 137.102 653.754C136.391 653.426 135.781 652.973 135.273 652.395C134.773 651.809 134.391 651.125 134.125 650.344C133.859 649.562 133.727 648.715 133.727 647.801ZM135.895 647.531V647.801C135.895 648.434 135.969 649.031 136.117 649.594C136.266 650.148 136.488 650.641 136.785 651.07C137.09 651.5 137.469 651.84 137.922 652.09C138.375 652.332 138.902 652.453 139.504 652.453C140.098 652.453 140.617 652.332 141.062 652.09C141.516 651.84 141.891 651.5 142.188 651.07C142.484 650.641 142.707 650.148 142.855 649.594C143.012 649.031 143.09 648.434 143.09 647.801V647.531C143.09 646.906 143.012 646.316 142.855 645.762C142.707 645.199 142.48 644.703 142.176 644.273C141.879 643.836 141.504 643.492 141.051 643.242C140.605 642.992 140.082 642.867 139.48 642.867C138.887 642.867 138.363 642.992 137.91 643.242C137.465 643.492 137.09 643.836 136.785 644.273C136.488 644.703 136.266 645.199 136.117 645.762C135.969 646.316 135.895 646.906 135.895 647.531ZM156.098 643.84V654H153.918V641.32H155.98L156.098 643.84ZM155.652 647.18L154.645 647.145C154.652 646.277 154.766 645.477 154.984 644.742C155.203 644 155.527 643.355 155.957 642.809C156.387 642.262 156.922 641.84 157.562 641.543C158.203 641.238 158.945 641.086 159.789 641.086C160.383 641.086 160.93 641.172 161.43 641.344C161.93 641.508 162.363 641.77 162.73 642.129C163.098 642.488 163.383 642.949 163.586 643.512C163.789 644.074 163.891 644.754 163.891 645.551V654H161.723V645.656C161.723 644.992 161.609 644.461 161.383 644.062C161.164 643.664 160.852 643.375 160.445 643.195C160.039 643.008 159.562 642.914 159.016 642.914C158.375 642.914 157.84 643.027 157.41 643.254C156.98 643.48 156.637 643.793 156.379 644.191C156.121 644.59 155.934 645.047 155.816 645.562C155.707 646.07 155.652 646.609 155.652 647.18ZM163.867 645.984L162.414 646.43C162.422 645.734 162.535 645.066 162.754 644.426C162.98 643.785 163.305 643.215 163.727 642.715C164.156 642.215 164.684 641.82 165.309 641.531C165.934 641.234 166.648 641.086 167.453 641.086C168.133 641.086 168.734 641.176 169.258 641.355C169.789 641.535 170.234 641.812 170.594 642.188C170.961 642.555 171.238 643.027 171.426 643.605C171.613 644.184 171.707 644.871 171.707 645.668V654H169.527V645.645C169.527 644.934 169.414 644.383 169.188 643.992C168.969 643.594 168.656 643.316 168.25 643.16C167.852 642.996 167.375 642.914 166.82 642.914C166.344 642.914 165.922 642.996 165.555 643.16C165.188 643.324 164.879 643.551 164.629 643.84C164.379 644.121 164.188 644.445 164.055 644.812C163.93 645.18 163.867 645.57 163.867 645.984ZM182.465 651.832V645.305C182.465 644.805 182.363 644.371 182.16 644.004C181.965 643.629 181.668 643.34 181.27 643.137C180.871 642.934 180.379 642.832 179.793 642.832C179.246 642.832 178.766 642.926 178.352 643.113C177.945 643.301 177.625 643.547 177.391 643.852C177.164 644.156 177.051 644.484 177.051 644.836H174.883C174.883 644.383 175 643.934 175.234 643.488C175.469 643.043 175.805 642.641 176.242 642.281C176.688 641.914 177.219 641.625 177.836 641.414C178.461 641.195 179.156 641.086 179.922 641.086C180.844 641.086 181.656 641.242 182.359 641.555C183.07 641.867 183.625 642.34 184.023 642.973C184.43 643.598 184.633 644.383 184.633 645.328V651.234C184.633 651.656 184.668 652.105 184.738 652.582C184.816 653.059 184.93 653.469 185.078 653.812V654H182.816C182.707 653.75 182.621 653.418 182.559 653.004C182.496 652.582 182.465 652.191 182.465 651.832ZM182.84 646.312L182.863 647.836H180.672C180.055 647.836 179.504 647.887 179.02 647.988C178.535 648.082 178.129 648.227 177.801 648.422C177.473 648.617 177.223 648.863 177.051 649.16C176.879 649.449 176.793 649.789 176.793 650.18C176.793 650.578 176.883 650.941 177.062 651.27C177.242 651.598 177.512 651.859 177.871 652.055C178.238 652.242 178.688 652.336 179.219 652.336C179.883 652.336 180.469 652.195 180.977 651.914C181.484 651.633 181.887 651.289 182.184 650.883C182.488 650.477 182.652 650.082 182.676 649.699L183.602 650.742C183.547 651.07 183.398 651.434 183.156 651.832C182.914 652.23 182.59 652.613 182.184 652.98C181.785 653.34 181.309 653.641 180.754 653.883C180.207 654.117 179.59 654.234 178.902 654.234C178.043 654.234 177.289 654.066 176.641 653.73C176 653.395 175.5 652.945 175.141 652.383C174.789 651.812 174.613 651.176 174.613 650.473C174.613 649.793 174.746 649.195 175.012 648.68C175.277 648.156 175.66 647.723 176.16 647.379C176.66 647.027 177.262 646.762 177.965 646.582C178.668 646.402 179.453 646.312 180.32 646.312H182.84ZM190.398 641.32V654H188.219V641.32H190.398ZM188.055 637.957C188.055 637.605 188.16 637.309 188.371 637.066C188.59 636.824 188.91 636.703 189.332 636.703C189.746 636.703 190.062 636.824 190.281 637.066C190.508 637.309 190.621 637.605 190.621 637.957C190.621 638.293 190.508 638.582 190.281 638.824C190.062 639.059 189.746 639.176 189.332 639.176C188.91 639.176 188.59 639.059 188.371 638.824C188.16 638.582 188.055 638.293 188.055 637.957ZM201.262 650.637C201.262 650.324 201.191 650.035 201.051 649.77C200.918 649.496 200.641 649.25 200.219 649.031C199.805 648.805 199.18 648.609 198.344 648.445C197.641 648.297 197.004 648.121 196.434 647.918C195.871 647.715 195.391 647.469 194.992 647.18C194.602 646.891 194.301 646.551 194.09 646.16C193.879 645.77 193.773 645.312 193.773 644.789C193.773 644.289 193.883 643.816 194.102 643.371C194.328 642.926 194.645 642.531 195.051 642.188C195.465 641.844 195.961 641.574 196.539 641.379C197.117 641.184 197.762 641.086 198.473 641.086C199.488 641.086 200.355 641.266 201.074 641.625C201.793 641.984 202.344 642.465 202.727 643.066C203.109 643.66 203.301 644.32 203.301 645.047H201.133C201.133 644.695 201.027 644.355 200.816 644.027C200.613 643.691 200.312 643.414 199.914 643.195C199.523 642.977 199.043 642.867 198.473 642.867C197.871 642.867 197.383 642.961 197.008 643.148C196.641 643.328 196.371 643.559 196.199 643.84C196.035 644.121 195.953 644.418 195.953 644.73C195.953 644.965 195.992 645.176 196.07 645.363C196.156 645.543 196.305 645.711 196.516 645.867C196.727 646.016 197.023 646.156 197.406 646.289C197.789 646.422 198.277 646.555 198.871 646.688C199.91 646.922 200.766 647.203 201.438 647.531C202.109 647.859 202.609 648.262 202.938 648.738C203.266 649.215 203.43 649.793 203.43 650.473C203.43 651.027 203.312 651.535 203.078 651.996C202.852 652.457 202.52 652.855 202.082 653.191C201.652 653.52 201.137 653.777 200.535 653.965C199.941 654.145 199.273 654.234 198.531 654.234C197.414 654.234 196.469 654.035 195.695 653.637C194.922 653.238 194.336 652.723 193.938 652.09C193.539 651.457 193.34 650.789 193.34 650.086H195.52C195.551 650.68 195.723 651.152 196.035 651.504C196.348 651.848 196.73 652.094 197.184 652.242C197.637 652.383 198.086 652.453 198.531 652.453C199.125 652.453 199.621 652.375 200.02 652.219C200.426 652.062 200.734 651.848 200.945 651.574C201.156 651.301 201.262 650.988 201.262 650.637ZM214.398 643.312V654H212.23V641.32H214.34L214.398 643.312ZM218.359 641.25L218.348 643.266C218.168 643.227 217.996 643.203 217.832 643.195C217.676 643.18 217.496 643.172 217.293 643.172C216.793 643.172 216.352 643.25 215.969 643.406C215.586 643.562 215.262 643.781 214.996 644.062C214.73 644.344 214.52 644.68 214.363 645.07C214.215 645.453 214.117 645.875 214.07 646.336L213.461 646.688C213.461 645.922 213.535 645.203 213.684 644.531C213.84 643.859 214.078 643.266 214.398 642.75C214.719 642.227 215.125 641.82 215.617 641.531C216.117 641.234 216.711 641.086 217.398 641.086C217.555 641.086 217.734 641.105 217.938 641.145C218.141 641.176 218.281 641.211 218.359 641.25ZM227.371 651.832V645.305C227.371 644.805 227.27 644.371 227.066 644.004C226.871 643.629 226.574 643.34 226.176 643.137C225.777 642.934 225.285 642.832 224.699 642.832C224.152 642.832 223.672 642.926 223.258 643.113C222.852 643.301 222.531 643.547 222.297 643.852C222.07 644.156 221.957 644.484 221.957 644.836H219.789C219.789 644.383 219.906 643.934 220.141 643.488C220.375 643.043 220.711 642.641 221.148 642.281C221.594 641.914 222.125 641.625 222.742 641.414C223.367 641.195 224.062 641.086 224.828 641.086C225.75 641.086 226.562 641.242 227.266 641.555C227.977 641.867 228.531 642.34 228.93 642.973C229.336 643.598 229.539 644.383 229.539 645.328V651.234C229.539 651.656 229.574 652.105 229.645 652.582C229.723 653.059 229.836 653.469 229.984 653.812V654H227.723C227.613 653.75 227.527 653.418 227.465 653.004C227.402 652.582 227.371 652.191 227.371 651.832ZM227.746 646.312L227.77 647.836H225.578C224.961 647.836 224.41 647.887 223.926 647.988C223.441 648.082 223.035 648.227 222.707 648.422C222.379 648.617 222.129 648.863 221.957 649.16C221.785 649.449 221.699 649.789 221.699 650.18C221.699 650.578 221.789 650.941 221.969 651.27C222.148 651.598 222.418 651.859 222.777 652.055C223.145 652.242 223.594 652.336 224.125 652.336C224.789 652.336 225.375 652.195 225.883 651.914C226.391 651.633 226.793 651.289 227.09 650.883C227.395 650.477 227.559 650.082 227.582 649.699L228.508 650.742C228.453 651.07 228.305 651.434 228.062 651.832C227.82 652.23 227.496 652.613 227.09 652.98C226.691 653.34 226.215 653.641 225.66 653.883C225.113 654.117 224.496 654.234 223.809 654.234C222.949 654.234 222.195 654.066 221.547 653.73C220.906 653.395 220.406 652.945 220.047 652.383C219.695 651.812 219.52 651.176 219.52 650.473C219.52 649.793 219.652 649.195 219.918 648.68C220.184 648.156 220.566 647.723 221.066 647.379C221.566 647.027 222.168 646.762 222.871 646.582C223.574 646.402 224.359 646.312 225.227 646.312H227.746ZM223.867 639.445L226.141 636H228.754L225.613 639.445H223.867ZM235.117 643.758V658.875H232.938V641.32H234.93L235.117 643.758ZM243.66 647.555V647.801C243.66 648.723 243.551 649.578 243.332 650.367C243.113 651.148 242.793 651.828 242.371 652.406C241.957 652.984 241.445 653.434 240.836 653.754C240.227 654.074 239.527 654.234 238.738 654.234C237.934 654.234 237.223 654.102 236.605 653.836C235.988 653.57 235.465 653.184 235.035 652.676C234.605 652.168 234.262 651.559 234.004 650.848C233.754 650.137 233.582 649.336 233.488 648.445V647.133C233.582 646.195 233.758 645.355 234.016 644.613C234.273 643.871 234.613 643.238 235.035 642.715C235.465 642.184 235.984 641.781 236.594 641.508C237.203 641.227 237.906 641.086 238.703 641.086C239.5 641.086 240.207 641.242 240.824 641.555C241.441 641.859 241.961 642.297 242.383 642.867C242.805 643.438 243.121 644.121 243.332 644.918C243.551 645.707 243.66 646.586 243.66 647.555ZM241.48 647.801V647.555C241.48 646.922 241.414 646.328 241.281 645.773C241.148 645.211 240.941 644.719 240.66 644.297C240.387 643.867 240.035 643.531 239.605 643.289C239.176 643.039 238.664 642.914 238.07 642.914C237.523 642.914 237.047 643.008 236.641 643.195C236.242 643.383 235.902 643.637 235.621 643.957C235.34 644.27 235.109 644.629 234.93 645.035C234.758 645.434 234.629 645.848 234.543 646.277V649.312C234.699 649.859 234.918 650.375 235.199 650.859C235.48 651.336 235.855 651.723 236.324 652.02C236.793 652.309 237.383 652.453 238.094 652.453C238.68 652.453 239.184 652.332 239.605 652.09C240.035 651.84 240.387 651.5 240.66 651.07C240.941 650.641 241.148 650.148 241.281 649.594C241.414 649.031 241.48 648.434 241.48 647.801ZM248.781 641.32V654H246.602V641.32H248.781ZM246.438 637.957C246.438 637.605 246.543 637.309 246.754 637.066C246.973 636.824 247.293 636.703 247.715 636.703C248.129 636.703 248.445 636.824 248.664 637.066C248.891 637.309 249.004 637.605 249.004 637.957C249.004 638.293 248.891 638.582 248.664 638.824C248.445 639.059 248.129 639.176 247.715 639.176C247.293 639.176 246.973 639.059 246.754 638.824C246.543 638.582 246.438 638.293 246.438 637.957ZM260.254 651.539V636H262.434V654H260.441L260.254 651.539ZM251.723 647.801V647.555C251.723 646.586 251.84 645.707 252.074 644.918C252.316 644.121 252.656 643.438 253.094 642.867C253.539 642.297 254.066 641.859 254.676 641.555C255.293 641.242 255.98 641.086 256.738 641.086C257.535 641.086 258.23 641.227 258.824 641.508C259.426 641.781 259.934 642.184 260.348 642.715C260.77 643.238 261.102 643.871 261.344 644.613C261.586 645.355 261.754 646.195 261.848 647.133V648.211C261.762 649.141 261.594 649.977 261.344 650.719C261.102 651.461 260.77 652.094 260.348 652.617C259.934 653.141 259.426 653.543 258.824 653.824C258.223 654.098 257.52 654.234 256.715 654.234C255.973 654.234 255.293 654.074 254.676 653.754C254.066 653.434 253.539 652.984 253.094 652.406C252.656 651.828 252.316 651.148 252.074 650.367C251.84 649.578 251.723 648.723 251.723 647.801ZM253.902 647.555V647.801C253.902 648.434 253.965 649.027 254.09 649.582C254.223 650.137 254.426 650.625 254.699 651.047C254.973 651.469 255.32 651.801 255.742 652.043C256.164 652.277 256.668 652.395 257.254 652.395C257.973 652.395 258.562 652.242 259.023 651.938C259.492 651.633 259.867 651.23 260.148 650.73C260.43 650.23 260.648 649.688 260.805 649.102V646.277C260.711 645.848 260.574 645.434 260.395 645.035C260.223 644.629 259.996 644.27 259.715 643.957C259.441 643.637 259.102 643.383 258.695 643.195C258.297 643.008 257.824 642.914 257.277 642.914C256.684 642.914 256.172 643.039 255.742 643.289C255.32 643.531 254.973 643.867 254.699 644.297C254.426 644.719 254.223 645.211 254.09 645.773C253.965 646.328 253.902 646.922 253.902 647.555ZM265.234 647.801V647.531C265.234 646.617 265.367 645.77 265.633 644.988C265.898 644.199 266.281 643.516 266.781 642.938C267.281 642.352 267.887 641.898 268.598 641.578C269.309 641.25 270.105 641.086 270.988 641.086C271.879 641.086 272.68 641.25 273.391 641.578C274.109 641.898 274.719 642.352 275.219 642.938C275.727 643.516 276.113 644.199 276.379 644.988C276.645 645.77 276.777 646.617 276.777 647.531V647.801C276.777 648.715 276.645 649.562 276.379 650.344C276.113 651.125 275.727 651.809 275.219 652.395C274.719 652.973 274.113 653.426 273.402 653.754C272.699 654.074 271.902 654.234 271.012 654.234C270.121 654.234 269.32 654.074 268.609 653.754C267.898 653.426 267.289 652.973 266.781 652.395C266.281 651.809 265.898 651.125 265.633 650.344C265.367 649.562 265.234 648.715 265.234 647.801ZM267.402 647.531V647.801C267.402 648.434 267.477 649.031 267.625 649.594C267.773 650.148 267.996 650.641 268.293 651.07C268.598 651.5 268.977 651.84 269.43 652.09C269.883 652.332 270.41 652.453 271.012 652.453C271.605 652.453 272.125 652.332 272.57 652.09C273.023 651.84 273.398 651.5 273.695 651.07C273.992 650.641 274.215 650.148 274.363 649.594C274.52 649.031 274.598 648.434 274.598 647.801V647.531C274.598 646.906 274.52 646.316 274.363 645.762C274.215 645.199 273.988 644.703 273.684 644.273C273.387 643.836 273.012 643.492 272.559 643.242C272.113 642.992 271.59 642.867 270.988 642.867C270.395 642.867 269.871 642.992 269.418 643.242C268.973 643.492 268.598 643.836 268.293 644.273C267.996 644.703 267.773 645.199 267.625 645.762C267.477 646.316 267.402 646.906 267.402 647.531ZM290.711 654.234C289.828 654.234 289.027 654.086 288.309 653.789C287.598 653.484 286.984 653.059 286.469 652.512C285.961 651.965 285.57 651.316 285.297 650.566C285.023 649.816 284.887 648.996 284.887 648.105V647.613C284.887 646.582 285.039 645.664 285.344 644.859C285.648 644.047 286.062 643.359 286.586 642.797C287.109 642.234 287.703 641.809 288.367 641.52C289.031 641.23 289.719 641.086 290.43 641.086C291.336 641.086 292.117 641.242 292.773 641.555C293.438 641.867 293.98 642.305 294.402 642.867C294.824 643.422 295.137 644.078 295.34 644.836C295.543 645.586 295.645 646.406 295.645 647.297V648.27H286.176V646.5H293.477V646.336C293.445 645.773 293.328 645.227 293.125 644.695C292.93 644.164 292.617 643.727 292.188 643.383C291.758 643.039 291.172 642.867 290.43 642.867C289.938 642.867 289.484 642.973 289.07 643.184C288.656 643.387 288.301 643.691 288.004 644.098C287.707 644.504 287.477 645 287.312 645.586C287.148 646.172 287.066 646.848 287.066 647.613V648.105C287.066 648.707 287.148 649.273 287.312 649.805C287.484 650.328 287.73 650.789 288.051 651.188C288.379 651.586 288.773 651.898 289.234 652.125C289.703 652.352 290.234 652.465 290.828 652.465C291.594 652.465 292.242 652.309 292.773 651.996C293.305 651.684 293.77 651.266 294.168 650.742L295.48 651.785C295.207 652.199 294.859 652.594 294.438 652.969C294.016 653.344 293.496 653.648 292.879 653.883C292.27 654.117 291.547 654.234 290.711 654.234ZM304.117 636H306.297V651.539L306.109 654H304.117V636ZM314.863 647.555V647.801C314.863 648.723 314.754 649.578 314.535 650.367C314.316 651.148 313.996 651.828 313.574 652.406C313.152 652.984 312.637 653.434 312.027 653.754C311.418 654.074 310.719 654.234 309.93 654.234C309.125 654.234 308.418 654.098 307.809 653.824C307.207 653.543 306.699 653.141 306.285 652.617C305.871 652.094 305.539 651.461 305.289 650.719C305.047 649.977 304.879 649.141 304.785 648.211V647.133C304.879 646.195 305.047 645.355 305.289 644.613C305.539 643.871 305.871 643.238 306.285 642.715C306.699 642.184 307.207 641.781 307.809 641.508C308.41 641.227 309.109 641.086 309.906 641.086C310.703 641.086 311.41 641.242 312.027 641.555C312.645 641.859 313.16 642.297 313.574 642.867C313.996 643.438 314.316 644.121 314.535 644.918C314.754 645.707 314.863 646.586 314.863 647.555ZM312.684 647.801V647.555C312.684 646.922 312.625 646.328 312.508 645.773C312.391 645.211 312.203 644.719 311.945 644.297C311.688 643.867 311.348 643.531 310.926 643.289C310.504 643.039 309.984 642.914 309.367 642.914C308.82 642.914 308.344 643.008 307.938 643.195C307.539 643.383 307.199 643.637 306.918 643.957C306.637 644.27 306.406 644.629 306.227 645.035C306.055 645.434 305.926 645.848 305.84 646.277V649.102C305.965 649.648 306.168 650.176 306.449 650.684C306.738 651.184 307.121 651.594 307.598 651.914C308.082 652.234 308.68 652.395 309.391 652.395C309.977 652.395 310.477 652.277 310.891 652.043C311.312 651.801 311.652 651.469 311.91 651.047C312.176 650.625 312.371 650.137 312.496 649.582C312.621 649.027 312.684 648.434 312.684 647.801ZM325.082 651.832V645.305C325.082 644.805 324.98 644.371 324.777 644.004C324.582 643.629 324.285 643.34 323.887 643.137C323.488 642.934 322.996 642.832 322.41 642.832C321.863 642.832 321.383 642.926 320.969 643.113C320.562 643.301 320.242 643.547 320.008 643.852C319.781 644.156 319.668 644.484 319.668 644.836H317.5C317.5 644.383 317.617 643.934 317.852 643.488C318.086 643.043 318.422 642.641 318.859 642.281C319.305 641.914 319.836 641.625 320.453 641.414C321.078 641.195 321.773 641.086 322.539 641.086C323.461 641.086 324.273 641.242 324.977 641.555C325.688 641.867 326.242 642.34 326.641 642.973C327.047 643.598 327.25 644.383 327.25 645.328V651.234C327.25 651.656 327.285 652.105 327.355 652.582C327.434 653.059 327.547 653.469 327.695 653.812V654H325.434C325.324 653.75 325.238 653.418 325.176 653.004C325.113 652.582 325.082 652.191 325.082 651.832ZM325.457 646.312L325.48 647.836H323.289C322.672 647.836 322.121 647.887 321.637 647.988C321.152 648.082 320.746 648.227 320.418 648.422C320.09 648.617 319.84 648.863 319.668 649.16C319.496 649.449 319.41 649.789 319.41 650.18C319.41 650.578 319.5 650.941 319.68 651.27C319.859 651.598 320.129 651.859 320.488 652.055C320.855 652.242 321.305 652.336 321.836 652.336C322.5 652.336 323.086 652.195 323.594 651.914C324.102 651.633 324.504 651.289 324.801 650.883C325.105 650.477 325.27 650.082 325.293 649.699L326.219 650.742C326.164 651.07 326.016 651.434 325.773 651.832C325.531 652.23 325.207 652.613 324.801 652.98C324.402 653.34 323.926 653.641 323.371 653.883C322.824 654.117 322.207 654.234 321.52 654.234C320.66 654.234 319.906 654.066 319.258 653.73C318.617 653.395 318.117 652.945 317.758 652.383C317.406 651.812 317.23 651.176 317.23 650.473C317.23 649.793 317.363 649.195 317.629 648.68C317.895 648.156 318.277 647.723 318.777 647.379C319.277 647.027 319.879 646.762 320.582 646.582C321.285 646.402 322.07 646.312 322.938 646.312H325.457ZM332.828 643.312V654H330.66V641.32H332.77L332.828 643.312ZM336.789 641.25L336.777 643.266C336.598 643.227 336.426 643.203 336.262 643.195C336.105 643.18 335.926 643.172 335.723 643.172C335.223 643.172 334.781 643.25 334.398 643.406C334.016 643.562 333.691 643.781 333.426 644.062C333.16 644.344 332.949 644.68 332.793 645.07C332.645 645.453 332.547 645.875 332.5 646.336L331.891 646.688C331.891 645.922 331.965 645.203 332.113 644.531C332.27 643.859 332.508 643.266 332.828 642.75C333.148 642.227 333.555 641.82 334.047 641.531C334.547 641.234 335.141 641.086 335.828 641.086C335.984 641.086 336.164 641.105 336.367 641.145C336.57 641.176 336.711 641.211 336.789 641.25ZM345.801 651.832V645.305C345.801 644.805 345.699 644.371 345.496 644.004C345.301 643.629 345.004 643.34 344.605 643.137C344.207 642.934 343.715 642.832 343.129 642.832C342.582 642.832 342.102 642.926 341.688 643.113C341.281 643.301 340.961 643.547 340.727 643.852C340.5 644.156 340.387 644.484 340.387 644.836H338.219C338.219 644.383 338.336 643.934 338.57 643.488C338.805 643.043 339.141 642.641 339.578 642.281C340.023 641.914 340.555 641.625 341.172 641.414C341.797 641.195 342.492 641.086 343.258 641.086C344.18 641.086 344.992 641.242 345.695 641.555C346.406 641.867 346.961 642.34 347.359 642.973C347.766 643.598 347.969 644.383 347.969 645.328V651.234C347.969 651.656 348.004 652.105 348.074 652.582C348.152 653.059 348.266 653.469 348.414 653.812V654H346.152C346.043 653.75 345.957 653.418 345.895 653.004C345.832 652.582 345.801 652.191 345.801 651.832ZM346.176 646.312L346.199 647.836H344.008C343.391 647.836 342.84 647.887 342.355 647.988C341.871 648.082 341.465 648.227 341.137 648.422C340.809 648.617 340.559 648.863 340.387 649.16C340.215 649.449 340.129 649.789 340.129 650.18C340.129 650.578 340.219 650.941 340.398 651.27C340.578 651.598 340.848 651.859 341.207 652.055C341.574 652.242 342.023 652.336 342.555 652.336C343.219 652.336 343.805 652.195 344.312 651.914C344.82 651.633 345.223 651.289 345.52 650.883C345.824 650.477 345.988 650.082 346.012 649.699L346.938 650.742C346.883 651.07 346.734 651.434 346.492 651.832C346.25 652.23 345.926 652.613 345.52 652.98C345.121 653.34 344.645 653.641 344.09 653.883C343.543 654.117 342.926 654.234 342.238 654.234C341.379 654.234 340.625 654.066 339.977 653.73C339.336 653.395 338.836 652.945 338.477 652.383C338.125 651.812 337.949 651.176 337.949 650.473C337.949 649.793 338.082 649.195 338.348 648.68C338.613 648.156 338.996 647.723 339.496 647.379C339.996 647.027 340.598 646.762 341.301 646.582C342.004 646.402 342.789 646.312 343.656 646.312H346.176ZM356.688 641.32V642.984H349.832V641.32H356.688ZM352.152 638.238H354.32V650.859C354.32 651.289 354.387 651.613 354.52 651.832C354.652 652.051 354.824 652.195 355.035 652.266C355.246 652.336 355.473 652.371 355.715 652.371C355.895 652.371 356.082 652.355 356.277 652.324C356.48 652.285 356.633 652.254 356.734 652.23L356.746 654C356.574 654.055 356.348 654.105 356.066 654.152C355.793 654.207 355.461 654.234 355.07 654.234C354.539 654.234 354.051 654.129 353.605 653.918C353.16 653.707 352.805 653.355 352.539 652.863C352.281 652.363 352.152 651.691 352.152 650.848V638.238ZM358.422 647.801V647.531C358.422 646.617 358.555 645.77 358.82 644.988C359.086 644.199 359.469 643.516 359.969 642.938C360.469 642.352 361.074 641.898 361.785 641.578C362.496 641.25 363.293 641.086 364.176 641.086C365.066 641.086 365.867 641.25 366.578 641.578C367.297 641.898 367.906 642.352 368.406 642.938C368.914 643.516 369.301 644.199 369.566 644.988C369.832 645.77 369.965 646.617 369.965 647.531V647.801C369.965 648.715 369.832 649.562 369.566 650.344C369.301 651.125 368.914 651.809 368.406 652.395C367.906 652.973 367.301 653.426 366.59 653.754C365.887 654.074 365.09 654.234 364.199 654.234C363.309 654.234 362.508 654.074 361.797 653.754C361.086 653.426 360.477 652.973 359.969 652.395C359.469 651.809 359.086 651.125 358.82 650.344C358.555 649.562 358.422 648.715 358.422 647.801ZM360.59 647.531V647.801C360.59 648.434 360.664 649.031 360.812 649.594C360.961 650.148 361.184 650.641 361.48 651.07C361.785 651.5 362.164 651.84 362.617 652.09C363.07 652.332 363.598 652.453 364.199 652.453C364.793 652.453 365.312 652.332 365.758 652.09C366.211 651.84 366.586 651.5 366.883 651.07C367.18 650.641 367.402 650.148 367.551 649.594C367.707 649.031 367.785 648.434 367.785 647.801V647.531C367.785 646.906 367.707 646.316 367.551 645.762C367.402 645.199 367.176 644.703 366.871 644.273C366.574 643.836 366.199 643.492 365.746 643.242C365.301 642.992 364.777 642.867 364.176 642.867C363.582 642.867 363.059 642.992 362.605 643.242C362.16 643.492 361.785 643.836 361.48 644.273C361.184 644.703 360.961 645.199 360.812 645.762C360.664 646.316 360.59 646.906 360.59 647.531ZM372.719 652.852C372.719 652.484 372.832 652.176 373.059 651.926C373.293 651.668 373.629 651.539 374.066 651.539C374.504 651.539 374.836 651.668 375.062 651.926C375.297 652.176 375.414 652.484 375.414 652.852C375.414 653.211 375.297 653.516 375.062 653.766C374.836 654.016 374.504 654.141 374.066 654.141C373.629 654.141 373.293 654.016 373.059 653.766C372.832 653.516 372.719 653.211 372.719 652.852Z" fill="#F9F9F9"/>
<path d="M96.376 563.252C94.528 563.252 92.872 562.952 91.408 562.352C89.944 561.752 88.768 560.864 87.88 559.688C87.016 558.512 86.56 557.096 86.512 555.44H93.064C93.16 556.376 93.484 557.096 94.036 557.6C94.588 558.08 95.308 558.32 96.196 558.32C97.108 558.32 97.828 558.116 98.356 557.708C98.884 557.276 99.148 556.688 99.148 555.944C99.148 555.32 98.932 554.804 98.5 554.396C98.092 553.988 97.576 553.652 96.952 553.388C96.352 553.124 95.488 552.824 94.36 552.488C92.728 551.984 91.396 551.48 90.364 550.976C89.332 550.472 88.444 549.728 87.7 548.744C86.956 547.76 86.584 546.476 86.584 544.892C86.584 542.54 87.436 540.704 89.14 539.384C90.844 538.04 93.064 537.368 95.8 537.368C98.584 537.368 100.828 538.04 102.532 539.384C104.236 540.704 105.148 542.552 105.268 544.928H98.608C98.56 544.112 98.26 543.476 97.708 543.02C97.156 542.54 96.448 542.3 95.584 542.3C94.84 542.3 94.24 542.504 93.784 542.912C93.328 543.296 93.1 543.86 93.1 544.604C93.1 545.42 93.484 546.056 94.252 546.512C95.02 546.968 96.22 547.46 97.852 547.988C99.484 548.54 100.804 549.068 101.812 549.572C102.844 550.076 103.732 550.808 104.476 551.768C105.22 552.728 105.592 553.964 105.592 555.476C105.592 556.916 105.22 558.224 104.476 559.4C103.756 560.576 102.7 561.512 101.308 562.208C99.916 562.904 98.272 563.252 96.376 563.252ZM129.216 542.912V563H123.06V560.264C122.436 561.152 121.584 561.872 120.504 562.424C119.448 562.952 118.272 563.216 116.976 563.216C115.44 563.216 114.084 562.88 112.908 562.208C111.732 561.512 110.82 560.516 110.172 559.22C109.524 557.924 109.2 556.4 109.2 554.648V542.912H115.32V553.82C115.32 555.164 115.668 556.208 116.364 556.952C117.06 557.696 117.996 558.068 119.172 558.068C120.372 558.068 121.32 557.696 122.016 556.952C122.712 556.208 123.06 555.164 123.06 553.82V542.912H129.216ZM132.414 552.92C132.414 550.856 132.798 549.044 133.566 547.484C134.358 545.924 135.426 544.724 136.77 543.884C138.114 543.044 139.614 542.624 141.27 542.624C142.686 542.624 143.922 542.912 144.978 543.488C146.058 544.064 146.886 544.82 147.462 545.756V542.912H153.618V563H147.462V560.156C146.862 561.092 146.022 561.848 144.942 562.424C143.886 563 142.65 563.288 141.234 563.288C139.602 563.288 138.114 562.868 136.77 562.028C135.426 561.164 134.358 559.952 133.566 558.392C132.798 556.808 132.414 554.984 132.414 552.92ZM147.462 552.956C147.462 551.42 147.03 550.208 146.166 549.32C145.326 548.432 144.294 547.988 143.07 547.988C141.846 547.988 140.802 548.432 139.938 549.32C139.098 550.184 138.678 551.384 138.678 552.92C138.678 554.456 139.098 555.68 139.938 556.592C140.802 557.48 141.846 557.924 143.07 557.924C144.294 557.924 145.326 557.48 146.166 556.592C147.03 555.704 147.462 554.492 147.462 552.956ZM166.244 563.288C164.492 563.288 162.932 562.988 161.564 562.388C160.196 561.788 159.116 560.972 158.324 559.94C157.532 558.884 157.088 557.708 156.992 556.412H163.076C163.148 557.108 163.472 557.672 164.048 558.104C164.624 558.536 165.332 558.752 166.172 558.752C166.94 558.752 167.528 558.608 167.936 558.32C168.368 558.008 168.584 557.612 168.584 557.132C168.584 556.556 168.284 556.136 167.684 555.872C167.084 555.584 166.112 555.272 164.768 554.936C163.328 554.6 162.128 554.252 161.168 553.892C160.208 553.508 159.38 552.92 158.684 552.128C157.988 551.312 157.64 550.22 157.64 548.852C157.64 547.7 157.952 546.656 158.576 545.72C159.224 544.76 160.16 544.004 161.384 543.452C162.632 542.9 164.108 542.624 165.812 542.624C168.332 542.624 170.312 543.248 171.752 544.496C173.216 545.744 174.056 547.4 174.272 549.464H168.584C168.488 548.768 168.176 548.216 167.648 547.808C167.144 547.4 166.472 547.196 165.632 547.196C164.912 547.196 164.36 547.34 163.976 547.628C163.592 547.892 163.4 548.264 163.4 548.744C163.4 549.32 163.7 549.752 164.3 550.04C164.924 550.328 165.884 550.616 167.18 550.904C168.668 551.288 169.88 551.672 170.816 552.056C171.752 552.416 172.568 553.016 173.264 553.856C173.984 554.672 174.356 555.776 174.38 557.168C174.38 558.344 174.044 559.4 173.372 560.336C172.724 561.248 171.776 561.968 170.528 562.496C169.304 563.024 167.876 563.288 166.244 563.288ZM204.711 552.632C204.711 553.208 204.675 553.808 204.603 554.432H190.671C190.767 555.68 191.163 556.64 191.859 557.312C192.579 557.96 193.455 558.284 194.487 558.284C196.023 558.284 197.091 557.636 197.691 556.34H204.243C203.907 557.66 203.295 558.848 202.407 559.904C201.543 560.96 200.451 561.788 199.131 562.388C197.811 562.988 196.335 563.288 194.703 563.288C192.735 563.288 190.983 562.868 189.447 562.028C187.911 561.188 186.711 559.988 185.847 558.428C184.983 556.868 184.551 555.044 184.551 552.956C184.551 550.868 184.971 549.044 185.811 547.484C186.675 545.924 187.875 544.724 189.411 543.884C190.947 543.044 192.711 542.624 194.703 542.624C196.647 542.624 198.375 543.032 199.887 543.848C201.399 544.664 202.575 545.828 203.415 547.34C204.279 548.852 204.711 550.616 204.711 552.632ZM198.411 551.012C198.411 549.956 198.051 549.116 197.331 548.492C196.611 547.868 195.711 547.556 194.631 547.556C193.599 547.556 192.723 547.856 192.003 548.456C191.307 549.056 190.875 549.908 190.707 551.012H198.411ZM220.199 542.696C222.551 542.696 224.423 543.464 225.815 545C227.231 546.512 227.939 548.6 227.939 551.264V563H221.819V552.092C221.819 550.748 221.471 549.704 220.775 548.96C220.079 548.216 219.143 547.844 217.967 547.844C216.791 547.844 215.855 548.216 215.159 548.96C214.463 549.704 214.115 550.748 214.115 552.092V563H207.959V542.912H214.115V545.576C214.739 544.688 215.579 543.992 216.635 543.488C217.691 542.96 218.879 542.696 220.199 542.696ZM230.992 552.956C230.992 550.868 231.412 549.044 232.252 547.484C233.116 545.924 234.304 544.724 235.816 543.884C237.352 543.044 239.104 542.624 241.072 542.624C243.592 542.624 245.692 543.284 247.372 544.604C249.076 545.924 250.192 547.784 250.72 550.184H244.168C243.616 548.648 242.548 547.88 240.964 547.88C239.836 547.88 238.936 548.324 238.264 549.212C237.592 550.076 237.256 551.324 237.256 552.956C237.256 554.588 237.592 555.848 238.264 556.736C238.936 557.6 239.836 558.032 240.964 558.032C242.548 558.032 243.616 557.264 244.168 555.728H250.72C250.192 558.08 249.076 559.928 247.372 561.272C245.668 562.616 243.568 563.288 241.072 563.288C239.104 563.288 237.352 562.868 235.816 562.028C234.304 561.188 233.116 559.988 232.252 558.428C231.412 556.868 230.992 555.044 230.992 552.956ZM263.157 563.288C261.189 563.288 259.413 562.868 257.829 562.028C256.269 561.188 255.033 559.988 254.121 558.428C253.233 556.868 252.789 555.044 252.789 552.956C252.789 550.892 253.245 549.08 254.157 547.52C255.069 545.936 256.317 544.724 257.901 543.884C259.485 543.044 261.261 542.624 263.229 542.624C265.197 542.624 266.973 543.044 268.557 543.884C270.141 544.724 271.389 545.936 272.301 547.52C273.213 549.08 273.669 550.892 273.669 552.956C273.669 555.02 273.201 556.844 272.265 558.428C271.353 559.988 270.093 561.188 268.485 562.028C266.901 562.868 265.125 563.288 263.157 563.288ZM263.157 557.96C264.333 557.96 265.329 557.528 266.145 556.664C266.985 555.8 267.405 554.564 267.405 552.956C267.405 551.348 266.997 550.112 266.181 549.248C265.389 548.384 264.405 547.952 263.229 547.952C262.029 547.952 261.033 548.384 260.241 549.248C259.449 550.088 259.053 551.324 259.053 552.956C259.053 554.564 259.437 555.8 260.205 556.664C260.997 557.528 261.981 557.96 263.157 557.96ZM302.567 542.696C305.063 542.696 307.043 543.452 308.507 544.964C309.995 546.476 310.739 548.576 310.739 551.264V563H304.619V552.092C304.619 550.796 304.271 549.8 303.575 549.104C302.903 548.384 301.967 548.024 300.767 548.024C299.567 548.024 298.619 548.384 297.923 549.104C297.251 549.8 296.915 550.796 296.915 552.092V563H290.795V552.092C290.795 550.796 290.447 549.8 289.751 549.104C289.079 548.384 288.143 548.024 286.943 548.024C285.743 548.024 284.795 548.384 284.099 549.104C283.427 549.8 283.091 550.796 283.091 552.092V563H276.935V542.912H283.091V545.432C283.715 544.592 284.531 543.932 285.539 543.452C286.547 542.948 287.687 542.696 288.959 542.696C290.471 542.696 291.815 543.02 292.991 543.668C294.191 544.316 295.127 545.24 295.799 546.44C296.495 545.336 297.443 544.436 298.643 543.74C299.843 543.044 301.151 542.696 302.567 542.696ZM333.98 552.632C333.98 553.208 333.945 553.808 333.873 554.432H319.941C320.037 555.68 320.433 556.64 321.129 557.312C321.849 557.96 322.725 558.284 323.757 558.284C325.293 558.284 326.361 557.636 326.961 556.34H333.513C333.177 557.66 332.565 558.848 331.677 559.904C330.813 560.96 329.721 561.788 328.401 562.388C327.081 562.988 325.605 563.288 323.973 563.288C322.005 563.288 320.253 562.868 318.717 562.028C317.181 561.188 315.981 559.988 315.117 558.428C314.253 556.868 313.821 555.044 313.821 552.956C313.821 550.868 314.241 549.044 315.081 547.484C315.945 545.924 317.145 544.724 318.681 543.884C320.217 543.044 321.981 542.624 323.973 542.624C325.917 542.624 327.645 543.032 329.157 543.848C330.669 544.664 331.845 545.828 332.685 547.34C333.549 548.852 333.98 550.616 333.98 552.632ZM327.681 551.012C327.681 549.956 327.321 549.116 326.601 548.492C325.881 547.868 324.981 547.556 323.901 547.556C322.869 547.556 321.993 547.856 321.273 548.456C320.577 549.056 320.145 549.908 319.977 551.012H327.681ZM349.468 542.696C351.82 542.696 353.692 543.464 355.084 545C356.5 546.512 357.208 548.6 357.208 551.264V563H351.088V552.092C351.088 550.748 350.74 549.704 350.044 548.96C349.348 548.216 348.412 547.844 347.236 547.844C346.06 547.844 345.124 548.216 344.428 548.96C343.732 549.704 343.384 550.748 343.384 552.092V563H337.228V542.912H343.384V545.576C344.008 544.688 344.848 543.992 345.904 543.488C346.96 542.96 348.148 542.696 349.468 542.696ZM360.262 552.92C360.262 550.856 360.646 549.044 361.414 547.484C362.206 545.924 363.274 544.724 364.618 543.884C365.962 543.044 367.462 542.624 369.118 542.624C370.438 542.624 371.638 542.9 372.718 543.452C373.822 544.004 374.686 544.748 375.31 545.684V536.36H381.466V563H375.31V560.12C374.734 561.08 373.906 561.848 372.826 562.424C371.77 563 370.534 563.288 369.118 563.288C367.462 563.288 365.962 562.868 364.618 562.028C363.274 561.164 362.206 559.952 361.414 558.392C360.646 556.808 360.262 554.984 360.262 552.92ZM375.31 552.956C375.31 551.42 374.878 550.208 374.014 549.32C373.174 548.432 372.142 547.988 370.918 547.988C369.694 547.988 368.65 548.432 367.786 549.32C366.946 550.184 366.526 551.384 366.526 552.92C366.526 554.456 366.946 555.68 367.786 556.592C368.65 557.48 369.694 557.924 370.918 557.924C372.142 557.924 373.174 557.48 374.014 556.592C374.878 555.704 375.31 554.492 375.31 552.956ZM384.696 552.92C384.696 550.856 385.08 549.044 385.848 547.484C386.64 545.924 387.708 544.724 389.052 543.884C390.396 543.044 391.896 542.624 393.552 542.624C394.968 542.624 396.204 542.912 397.26 543.488C398.34 544.064 399.168 544.82 399.744 545.756V542.912H405.9V563H399.744V560.156C399.144 561.092 398.304 561.848 397.224 562.424C396.168 563 394.932 563.288 393.516 563.288C391.884 563.288 390.396 562.868 389.052 562.028C387.708 561.164 386.64 559.952 385.848 558.392C385.08 556.808 384.696 554.984 384.696 552.92ZM399.744 552.956C399.744 551.42 399.312 550.208 398.448 549.32C397.608 548.432 396.576 547.988 395.352 547.988C394.128 547.988 393.084 548.432 392.22 549.32C391.38 550.184 390.96 551.384 390.96 552.92C390.96 554.456 391.38 555.68 392.22 556.592C393.084 557.48 394.128 557.924 395.352 557.924C396.576 557.924 397.608 557.48 398.448 556.592C399.312 555.704 399.744 554.492 399.744 552.956ZM418.525 563.288C416.773 563.288 415.213 562.988 413.845 562.388C412.477 561.788 411.397 560.972 410.605 559.94C409.813 558.884 409.369 557.708 409.273 556.412H415.357C415.429 557.108 415.753 557.672 416.329 558.104C416.905 558.536 417.613 558.752 418.453 558.752C419.221 558.752 419.809 558.608 420.217 558.32C420.649 558.008 420.865 557.612 420.865 557.132C420.865 556.556 420.565 556.136 419.965 555.872C419.365 555.584 418.393 555.272 417.049 554.936C415.609 554.6 414.409 554.252 413.449 553.892C412.489 553.508 411.661 552.92 410.965 552.128C410.269 551.312 409.921 550.22 409.921 548.852C409.921 547.7 410.233 546.656 410.857 545.72C411.505 544.76 412.441 544.004 413.665 543.452C414.913 542.9 416.389 542.624 418.093 542.624C420.613 542.624 422.593 543.248 424.033 544.496C425.497 545.744 426.337 547.4 426.553 549.464H420.865C420.769 548.768 420.457 548.216 419.929 547.808C419.425 547.4 418.753 547.196 417.913 547.196C417.193 547.196 416.641 547.34 416.257 547.628C415.873 547.892 415.681 548.264 415.681 548.744C415.681 549.32 415.981 549.752 416.581 550.04C417.205 550.328 418.165 550.616 419.461 550.904C420.949 551.288 422.161 551.672 423.097 552.056C424.033 552.416 424.849 553.016 425.545 553.856C426.265 554.672 426.637 555.776 426.661 557.168C426.661 558.344 426.325 559.4 425.653 560.336C425.005 561.248 424.057 561.968 422.809 562.496C421.585 563.024 420.157 563.288 418.525 563.288ZM436.832 552.92C436.832 550.856 437.216 549.044 437.984 547.484C438.776 545.924 439.844 544.724 441.188 543.884C442.532 543.044 444.032 542.624 445.688 542.624C447.104 542.624 448.34 542.912 449.396 543.488C450.476 544.064 451.304 544.82 451.88 545.756V542.912H458.036V563H451.88V560.156C451.28 561.092 450.44 561.848 449.36 562.424C448.304 563 447.068 563.288 445.652 563.288C444.02 563.288 442.532 562.868 441.188 562.028C439.844 561.164 438.776 559.952 437.984 558.392C437.216 556.808 436.832 554.984 436.832 552.92ZM451.88 552.956C451.88 551.42 451.448 550.208 450.584 549.32C449.744 548.432 448.712 547.988 447.488 547.988C446.264 547.988 445.22 548.432 444.356 549.32C443.516 550.184 443.096 551.384 443.096 552.92C443.096 554.456 443.516 555.68 444.356 556.592C445.22 557.48 446.264 557.924 447.488 557.924C448.712 557.924 449.744 557.48 450.584 556.592C451.448 555.704 451.88 554.492 451.88 552.956ZM93.388 587.756C93.964 586.82 94.792 586.064 95.872 585.488C96.952 584.912 98.188 584.624 99.58 584.624C101.236 584.624 102.736 585.044 104.08 585.884C105.424 586.724 106.48 587.924 107.248 589.484C108.04 591.044 108.436 592.856 108.436 594.92C108.436 596.984 108.04 598.808 107.248 600.392C106.48 601.952 105.424 603.164 104.08 604.028C102.736 604.868 101.236 605.288 99.58 605.288C98.164 605.288 96.928 605.012 95.872 604.46C94.816 603.884 93.988 603.128 93.388 602.192V605H87.232V578.36H93.388V587.756ZM102.172 594.92C102.172 593.384 101.74 592.184 100.876 591.32C100.036 590.432 98.992 589.988 97.744 589.988C96.52 589.988 95.476 590.432 94.612 591.32C93.772 592.208 93.352 593.42 93.352 594.956C93.352 596.492 93.772 597.704 94.612 598.592C95.476 599.48 96.52 599.924 97.744 599.924C98.968 599.924 100.012 599.48 100.876 598.592C101.74 597.68 102.172 596.456 102.172 594.92ZM120.81 605.288C118.842 605.288 117.066 604.868 115.482 604.028C113.922 603.188 112.686 601.988 111.774 600.428C110.886 598.868 110.442 597.044 110.442 594.956C110.442 592.892 110.898 591.08 111.81 589.52C112.722 587.936 113.97 586.724 115.554 585.884C117.138 585.044 118.914 584.624 120.882 584.624C122.85 584.624 124.626 585.044 126.21 585.884C127.794 586.724 129.042 587.936 129.954 589.52C130.866 591.08 131.322 592.892 131.322 594.956C131.322 597.02 130.854 598.844 129.918 600.428C129.006 601.988 127.746 603.188 126.138 604.028C124.554 604.868 122.778 605.288 120.81 605.288ZM120.81 599.96C121.986 599.96 122.982 599.528 123.798 598.664C124.638 597.8 125.058 596.564 125.058 594.956C125.058 593.348 124.65 592.112 123.834 591.248C123.042 590.384 122.058 589.952 120.882 589.952C119.682 589.952 118.686 590.384 117.894 591.248C117.102 592.088 116.706 593.324 116.706 594.956C116.706 596.564 117.09 597.8 117.858 598.664C118.65 599.528 119.634 599.96 120.81 599.96ZM140.743 588.26C141.463 587.156 142.363 586.292 143.443 585.668C144.523 585.02 145.723 584.696 147.043 584.696V591.212H145.351C143.815 591.212 142.663 591.548 141.895 592.22C141.127 592.868 140.743 594.02 140.743 595.676V605H134.587V584.912H140.743V588.26ZM148.762 594.92C148.762 592.856 149.146 591.044 149.914 589.484C150.706 587.924 151.774 586.724 153.118 585.884C154.462 585.044 155.962 584.624 157.618 584.624C158.938 584.624 160.138 584.9 161.218 585.452C162.322 586.004 163.186 586.748 163.81 587.684V578.36H169.966V605H163.81V602.12C163.234 603.08 162.406 603.848 161.326 604.424C160.27 605 159.034 605.288 157.618 605.288C155.962 605.288 154.462 604.868 153.118 604.028C151.774 603.164 150.706 601.952 149.914 600.392C149.146 598.808 148.762 596.984 148.762 594.92ZM163.81 594.956C163.81 593.42 163.378 592.208 162.514 591.32C161.674 590.432 160.642 589.988 159.418 589.988C158.194 589.988 157.15 590.432 156.286 591.32C155.446 592.184 155.026 593.384 155.026 594.92C155.026 596.456 155.446 597.68 156.286 598.592C157.15 599.48 158.194 599.924 159.418 599.924C160.642 599.924 161.674 599.48 162.514 598.592C163.378 597.704 163.81 596.492 163.81 594.956ZM183.564 605.288C181.596 605.288 179.82 604.868 178.236 604.028C176.676 603.188 175.44 601.988 174.528 600.428C173.64 598.868 173.196 597.044 173.196 594.956C173.196 592.892 173.652 591.08 174.563 589.52C175.476 587.936 176.724 586.724 178.308 585.884C179.892 585.044 181.668 584.624 183.636 584.624C185.604 584.624 187.38 585.044 188.964 585.884C190.548 586.724 191.796 587.936 192.708 589.52C193.62 591.08 194.076 592.892 194.076 594.956C194.076 597.02 193.608 598.844 192.672 600.428C191.76 601.988 190.5 603.188 188.892 604.028C187.308 604.868 185.532 605.288 183.564 605.288ZM183.564 599.96C184.74 599.96 185.736 599.528 186.552 598.664C187.392 597.8 187.812 596.564 187.812 594.956C187.812 593.348 187.404 592.112 186.588 591.248C185.796 590.384 184.812 589.952 183.636 589.952C182.436 589.952 181.44 590.384 180.648 591.248C179.856 592.088 179.46 593.324 179.46 594.956C179.46 596.564 179.844 597.8 180.612 598.664C181.404 599.528 182.388 599.96 183.564 599.96ZM203.746 594.92C203.746 592.856 204.13 591.044 204.898 589.484C205.69 587.924 206.758 586.724 208.102 585.884C209.446 585.044 210.946 584.624 212.602 584.624C213.922 584.624 215.122 584.9 216.202 585.452C217.306 586.004 218.17 586.748 218.794 587.684V578.36H224.95V605H218.794V602.12C218.218 603.08 217.39 603.848 216.31 604.424C215.254 605 214.018 605.288 212.602 605.288C210.946 605.288 209.446 604.868 208.102 604.028C206.758 603.164 205.69 601.952 204.898 600.392C204.13 598.808 203.746 596.984 203.746 594.92ZM218.794 594.956C218.794 593.42 218.362 592.208 217.498 591.32C216.658 590.432 215.626 589.988 214.402 589.988C213.178 589.988 212.134 590.432 211.27 591.32C210.43 592.184 210.01 593.384 210.01 594.92C210.01 596.456 210.43 597.68 211.27 598.592C212.134 599.48 213.178 599.924 214.402 599.924C215.626 599.924 216.658 599.48 217.498 598.592C218.362 597.704 218.794 596.492 218.794 594.956ZM248.34 594.632C248.34 595.208 248.304 595.808 248.232 596.432H234.3C234.396 597.68 234.792 598.64 235.488 599.312C236.208 599.96 237.084 600.284 238.116 600.284C239.652 600.284 240.72 599.636 241.32 598.34H247.872C247.536 599.66 246.924 600.848 246.036 601.904C245.172 602.96 244.08 603.788 242.76 604.388C241.44 604.988 239.964 605.288 238.332 605.288C236.364 605.288 234.612 604.868 233.076 604.028C231.54 603.188 230.34 601.988 229.476 600.428C228.612 598.868 228.18 597.044 228.18 594.956C228.18 592.868 228.6 591.044 229.44 589.484C230.304 587.924 231.504 586.724 233.04 585.884C234.576 585.044 236.34 584.624 238.332 584.624C240.276 584.624 242.004 585.032 243.516 585.848C245.028 586.664 246.204 587.828 247.044 589.34C247.908 590.852 248.34 592.616 248.34 594.632ZM242.04 593.012C242.04 591.956 241.68 591.116 240.96 590.492C240.24 589.868 239.34 589.556 238.26 589.556C237.228 589.556 236.352 589.856 235.632 590.456C234.936 591.056 234.504 591.908 234.336 593.012H242.04ZM279.052 584.912V605H272.896V602.264C272.272 603.152 271.42 603.872 270.34 604.424C269.284 604.952 268.108 605.216 266.812 605.216C265.276 605.216 263.92 604.88 262.744 604.208C261.568 603.512 260.656 602.516 260.008 601.22C259.36 599.924 259.036 598.4 259.036 596.648V584.912H265.156V595.82C265.156 597.164 265.504 598.208 266.2 598.952C266.896 599.696 267.832 600.068 269.008 600.068C270.208 600.068 271.156 599.696 271.852 598.952C272.548 598.208 272.896 597.164 272.896 595.82V584.912H279.052ZM309.106 584.696C311.602 584.696 313.582 585.452 315.046 586.964C316.534 588.476 317.278 590.576 317.278 593.264V605H311.158V594.092C311.158 592.796 310.81 591.8 310.114 591.104C309.442 590.384 308.506 590.024 307.306 590.024C306.106 590.024 305.158 590.384 304.462 591.104C303.79 591.8 303.454 592.796 303.454 594.092V605H297.334V594.092C297.334 592.796 296.986 591.8 296.29 591.104C295.618 590.384 294.682 590.024 293.482 590.024C292.282 590.024 291.334 590.384 290.638 591.104C289.966 591.8 289.63 592.796 289.63 594.092V605H283.474V584.912H289.63V587.432C290.254 586.592 291.07 585.932 292.078 585.452C293.086 584.948 294.226 584.696 295.498 584.696C297.01 584.696 298.354 585.02 299.53 585.668C300.73 586.316 301.666 587.24 302.338 588.44C303.034 587.336 303.982 586.436 305.182 585.74C306.382 585.044 307.69 584.696 309.106 584.696ZM339.292 590.024H335.98V605H329.824V590.024H327.592V584.912H329.824V584.336C329.824 581.864 330.532 579.992 331.948 578.72C333.364 577.424 335.44 576.776 338.176 576.776C338.632 576.776 338.968 576.788 339.184 576.812V582.032C338.008 581.96 337.18 582.128 336.7 582.536C336.22 582.944 335.98 583.676 335.98 584.732V584.912H339.292V590.024ZM351.329 605.288C349.361 605.288 347.585 604.868 346.001 604.028C344.441 603.188 343.205 601.988 342.293 600.428C341.405 598.868 340.961 597.044 340.961 594.956C340.961 592.892 341.417 591.08 342.329 589.52C343.241 587.936 344.489 586.724 346.073 585.884C347.657 585.044 349.433 584.624 351.401 584.624C353.369 584.624 355.145 585.044 356.729 585.884C358.313 586.724 359.561 587.936 360.473 589.52C361.385 591.08 361.841 592.892 361.841 594.956C361.841 597.02 361.373 598.844 360.437 600.428C359.525 601.988 358.265 603.188 356.657 604.028C355.073 604.868 353.297 605.288 351.329 605.288ZM351.329 599.96C352.505 599.96 353.501 599.528 354.317 598.664C355.157 597.8 355.577 596.564 355.577 594.956C355.577 593.348 355.169 592.112 354.353 591.248C353.561 590.384 352.577 589.952 351.401 589.952C350.201 589.952 349.205 590.384 348.413 591.248C347.621 592.088 347.225 593.324 347.225 594.956C347.225 596.564 347.609 597.8 348.377 598.664C349.169 599.528 350.153 599.96 351.329 599.96ZM372.739 584.624C374.155 584.624 375.391 584.912 376.447 585.488C377.527 586.064 378.355 586.82 378.931 587.756V584.912H385.087V604.964C385.087 606.812 384.715 608.48 383.971 609.968C383.251 611.48 382.135 612.68 380.623 613.568C379.135 614.456 377.275 614.9 375.043 614.9C372.067 614.9 369.655 614.192 367.807 612.776C365.959 611.384 364.903 609.488 364.639 607.088H370.723C370.915 607.856 371.371 608.456 372.091 608.888C372.811 609.344 373.699 609.572 374.755 609.572C376.027 609.572 377.035 609.2 377.779 608.456C378.547 607.736 378.931 606.572 378.931 604.964V602.12C378.331 603.056 377.503 603.824 376.447 604.424C375.391 605 374.155 605.288 372.739 605.288C371.083 605.288 369.583 604.868 368.239 604.028C366.895 603.164 365.827 601.952 365.035 600.392C364.267 598.808 363.883 596.984 363.883 594.92C363.883 592.856 364.267 591.044 365.035 589.484C365.827 587.924 366.895 586.724 368.239 585.884C369.583 585.044 371.083 584.624 372.739 584.624ZM378.931 594.956C378.931 593.42 378.499 592.208 377.635 591.32C376.795 590.432 375.763 589.988 374.539 589.988C373.315 589.988 372.271 590.432 371.407 591.32C370.567 592.184 370.147 593.384 370.147 594.92C370.147 596.456 370.567 597.68 371.407 598.592C372.271 599.48 373.315 599.924 374.539 599.924C375.763 599.924 376.795 599.48 377.635 598.592C378.499 597.704 378.931 596.492 378.931 594.956ZM409.377 584.912V605H403.221V602.264C402.597 603.152 401.745 603.872 400.665 604.424C399.609 604.952 398.433 605.216 397.137 605.216C395.601 605.216 394.245 604.88 393.069 604.208C391.893 603.512 390.981 602.516 390.333 601.22C389.685 599.924 389.361 598.4 389.361 596.648V584.912H395.481V595.82C395.481 597.164 395.829 598.208 396.525 598.952C397.221 599.696 398.157 600.068 399.333 600.068C400.533 600.068 401.481 599.696 402.177 598.952C402.873 598.208 403.221 597.164 403.221 595.82V584.912H409.377ZM432.734 594.632C432.734 595.208 432.698 595.808 432.626 596.432H418.694C418.79 597.68 419.186 598.64 419.882 599.312C420.602 599.96 421.478 600.284 422.51 600.284C424.046 600.284 425.114 599.636 425.714 598.34H432.266C431.93 599.66 431.318 600.848 430.43 601.904C429.566 602.96 428.474 603.788 427.154 604.388C425.834 604.988 424.358 605.288 422.726 605.288C420.758 605.288 419.006 604.868 417.47 604.028C415.934 603.188 414.734 601.988 413.87 600.428C413.006 598.868 412.574 597.044 412.574 594.956C412.574 592.868 412.994 591.044 413.834 589.484C414.698 587.924 415.898 586.724 417.434 585.884C418.97 585.044 420.734 584.624 422.726 584.624C424.67 584.624 426.398 585.032 427.91 585.848C429.422 586.664 430.598 587.828 431.438 589.34C432.302 590.852 432.734 592.616 432.734 594.632ZM426.434 593.012C426.434 591.956 426.074 591.116 425.354 590.492C424.634 589.868 423.734 589.556 422.654 589.556C421.622 589.556 420.746 589.856 420.026 590.456C419.33 591.056 418.898 591.908 418.73 593.012H426.434ZM447.178 599.78V605H444.046C441.814 605 440.074 604.46 438.826 603.38C437.578 602.276 436.954 600.488 436.954 598.016V590.024H434.506V584.912H436.954V580.016H443.11V584.912H447.142V590.024H443.11V598.088C443.11 598.688 443.254 599.12 443.542 599.384C443.83 599.648 444.31 599.78 444.982 599.78H447.178ZM469.543 594.632C469.543 595.208 469.507 595.808 469.435 596.432H455.503C455.599 597.68 455.995 598.64 456.691 599.312C457.411 599.96 458.287 600.284 459.319 600.284C460.855 600.284 461.923 599.636 462.523 598.34H469.075C468.739 599.66 468.127 600.848 467.239 601.904C466.375 602.96 465.283 603.788 463.963 604.388C462.643 604.988 461.167 605.288 459.535 605.288C457.567 605.288 455.815 604.868 454.279 604.028C452.743 603.188 451.543 601.988 450.679 600.428C449.815 598.868 449.383 597.044 449.383 594.956C449.383 592.868 449.803 591.044 450.643 589.484C451.507 587.924 452.707 586.724 454.243 585.884C455.779 585.044 457.543 584.624 459.535 584.624C461.479 584.624 463.207 585.032 464.719 585.848C466.231 586.664 467.407 587.828 468.247 589.34C469.111 590.852 469.543 592.616 469.543 594.632ZM463.243 593.012C463.243 591.956 462.883 591.116 462.163 590.492C461.443 589.868 460.543 589.556 459.463 589.556C458.431 589.556 457.555 589.856 456.835 590.456C456.139 591.056 455.707 591.908 455.539 593.012H463.243ZM475.671 605.288C474.591 605.288 473.703 604.976 473.007 604.352C472.335 603.704 471.999 602.912 471.999 601.976C471.999 601.016 472.335 600.212 473.007 599.564C473.703 598.916 474.591 598.592 475.671 598.592C476.727 598.592 477.591 598.916 478.263 599.564C478.959 600.212 479.307 601.016 479.307 601.976C479.307 602.912 478.959 603.704 478.263 604.352C477.591 604.976 476.727 605.288 475.671 605.288Z" fill="white"/>
<path d="M102.568 94.92H124.312V105H88.6V95.64L110.2 64.536H88.6V54.456H124.312V63.816L102.568 94.92ZM170.227 84.264C170.227 85.416 170.155 86.616 170.011 87.864H142.147C142.339 90.36 143.131 92.28 144.523 93.624C145.963 94.92 147.715 95.568 149.779 95.568C152.851 95.568 154.987 94.272 156.187 91.68H169.291C168.619 94.32 167.395 96.696 165.619 98.808C163.891 100.92 161.707 102.576 159.067 103.776C156.427 104.976 153.475 105.576 150.211 105.576C146.275 105.576 142.771 104.736 139.699 103.056C136.627 101.376 134.227 98.976 132.499 95.856C130.771 92.736 129.907 89.088 129.907 84.912C129.907 80.736 130.747 77.088 132.427 73.968C134.155 70.848 136.555 68.448 139.627 66.768C142.699 65.088 146.227 64.248 150.211 64.248C154.099 64.248 157.555 65.064 160.579 66.696C163.603 68.328 165.955 70.656 167.635 73.68C169.363 76.704 170.227 80.232 170.227 84.264ZM157.627 81.024C157.627 78.912 156.907 77.232 155.467 75.984C154.027 74.736 152.227 74.112 150.067 74.112C148.003 74.112 146.251 74.712 144.811 75.912C143.419 77.112 142.555 78.816 142.219 81.024H157.627ZM189.034 70.512C190.234 68.64 191.89 67.128 194.002 65.976C196.114 64.824 198.586 64.248 201.418 64.248C204.73 64.248 207.73 65.088 210.418 66.768C213.106 68.448 215.218 70.848 216.754 73.968C218.338 77.088 219.13 80.712 219.13 84.84C219.13 88.968 218.338 92.616 216.754 95.784C215.218 98.904 213.106 101.328 210.418 103.056C207.73 104.736 204.73 105.576 201.418 105.576C198.634 105.576 196.162 105 194.002 103.848C191.89 102.696 190.234 101.208 189.034 99.384V124.152H176.722V64.824H189.034V70.512ZM206.602 84.84C206.602 81.768 205.738 79.368 204.01 77.64C202.33 75.864 200.242 74.976 197.746 74.976C195.298 74.976 193.21 75.864 191.482 77.64C189.802 79.416 188.962 81.84 188.962 84.912C188.962 87.984 189.802 90.408 191.482 92.184C193.21 93.96 195.298 94.848 197.746 94.848C200.194 94.848 202.282 93.96 204.01 92.184C205.738 90.36 206.602 87.912 206.602 84.84ZM250.285 64.392C254.893 64.392 258.589 65.928 261.373 69C264.157 72.024 265.549 76.2 265.549 81.528V105H253.309V83.184C253.309 80.496 252.613 78.408 251.221 76.92C249.829 75.432 247.957 74.688 245.605 74.688C243.253 74.688 241.381 75.432 239.989 76.92C238.597 78.408 237.901 80.496 237.901 83.184V105H225.589V51.72H237.901V70.224C239.149 68.448 240.853 67.032 243.013 65.976C245.173 64.92 247.597 64.392 250.285 64.392ZM315.145 64.824L289.945 124.08H276.697L285.913 103.632L269.569 64.824H283.321L292.609 89.952L301.825 64.824H315.145ZM331.909 71.52C333.349 69.312 335.149 67.584 337.309 66.336C339.469 65.04 341.869 64.392 344.509 64.392V77.424H341.125C338.053 77.424 335.749 78.096 334.213 79.44C332.677 80.736 331.909 83.04 331.909 86.352V105H319.597V64.824H331.909V71.52ZM390.066 64.824V105H377.754V99.528C376.506 101.304 374.802 102.744 372.642 103.848C370.53 104.904 368.178 105.432 365.586 105.432C362.514 105.432 359.802 104.76 357.45 103.416C355.098 102.024 353.274 100.032 351.978 97.44C350.682 94.848 350.034 91.8 350.034 88.296V64.824H362.274V86.64C362.274 89.328 362.97 91.416 364.362 92.904C365.754 94.392 367.626 95.136 369.978 95.136C372.378 95.136 374.274 94.392 375.666 92.904C377.058 91.416 377.754 89.328 377.754 86.64V64.824H390.066ZM415.253 105.576C411.749 105.576 408.629 104.976 405.893 103.776C403.157 102.576 400.997 100.944 399.413 98.88C397.829 96.768 396.941 94.416 396.749 91.824H408.917C409.061 93.216 409.709 94.344 410.861 95.208C412.013 96.072 413.429 96.504 415.109 96.504C416.645 96.504 417.821 96.216 418.637 95.64C419.501 95.016 419.933 94.224 419.933 93.264C419.933 92.112 419.333 91.272 418.133 90.744C416.933 90.168 414.989 89.544 412.301 88.872C409.421 88.2 407.021 87.504 405.101 86.784C403.181 86.016 401.525 84.84 400.133 83.256C398.741 81.624 398.045 79.44 398.045 76.704C398.045 74.4 398.669 72.312 399.917 70.44C401.213 68.52 403.085 67.008 405.533 65.904C408.029 64.8 410.981 64.248 414.389 64.248C419.429 64.248 423.389 65.496 426.269 67.992C429.197 70.488 430.877 73.8 431.309 77.928H419.933C419.741 76.536 419.117 75.432 418.061 74.616C417.053 73.8 415.709 73.392 414.029 73.392C412.589 73.392 411.485 73.68 410.717 74.256C409.949 74.784 409.565 75.528 409.565 76.488C409.565 77.64 410.165 78.504 411.365 79.08C412.613 79.656 414.533 80.232 417.125 80.808C420.101 81.576 422.525 82.344 424.397 83.112C426.269 83.832 427.901 85.032 429.293 86.712C430.733 88.344 431.477 90.552 431.525 93.336C431.525 95.688 430.853 97.8 429.509 99.672C428.213 101.496 426.317 102.936 423.821 103.992C421.373 105.048 418.517 105.576 415.253 105.576ZM444.818 105.576C442.658 105.576 440.882 104.952 439.49 103.704C438.146 102.408 437.474 100.824 437.474 98.952C437.474 97.032 438.146 95.424 439.49 94.128C440.882 92.832 442.658 92.184 444.818 92.184C446.93 92.184 448.658 92.832 450.002 94.128C451.394 95.424 452.09 97.032 452.09 98.952C452.09 100.824 451.394 102.408 450.002 103.704C448.658 104.952 446.93 105.576 444.818 105.576Z" fill="#2381FD"/>
<path d="M557.159 497.239L544.868 497.539C543.001 497.624 541.153 497.166 539.608 496.235C538.274 495.357 537.661 494.17 537.93 492.977L540.348 482.226C540.804 480.197 543.614 478.664 547.03 478.58L553.818 478.415C557.233 478.331 560.134 479.725 560.716 481.728L563.802 492.345C564.144 493.523 563.607 494.738 562.329 495.68C560.844 496.685 559.029 497.233 557.159 497.239V497.239Z" fill="#3F3D56"/>
<path d="M631.922 496.932L619.631 497.232C617.764 497.317 615.917 496.859 614.371 495.928C613.037 495.049 612.424 493.862 612.693 492.67L615.112 481.918C615.567 479.89 618.377 478.357 621.793 478.273L628.581 478.107C631.996 478.024 634.897 479.418 635.479 481.421L638.565 492.038C638.907 493.215 638.37 494.431 637.092 495.373C635.607 496.378 633.792 496.925 631.922 496.932V496.932Z" fill="#3F3D56"/>
<path d="M514.479 405.654C513.917 405.44 513.455 405.063 513.169 404.585C512.882 404.107 512.789 403.557 512.905 403.026C513.02 402.495 513.337 402.014 513.803 401.664C514.269 401.314 514.856 401.115 515.467 401.1L655.205 397.687C655.557 397.679 655.908 397.731 656.237 397.843C656.567 397.954 656.868 398.121 657.124 398.335C657.38 398.55 657.586 398.806 657.73 399.091C657.873 399.376 657.953 399.682 657.962 399.994V399.994C657.981 400.623 657.717 401.233 657.228 401.691C656.739 402.148 656.065 402.415 655.354 402.433L655.353 402.433L515.615 405.846C515.225 405.856 514.837 405.791 514.479 405.654Z" fill="#3F3D56"/>
<path d="M566.049 364.736L526.105 365.712L529.829 484.998L569.773 484.023L566.049 364.736Z" fill="#E6E6E6"/>
<path d="M567.062 362.593L559.384 381.094L559.391 465.385L568.747 467.758L567.062 362.593Z" fill="#CCCCCC"/>
<path d="M545.869 333.562C538.396 333.75 532.695 345.189 532.832 349.653L533.084 357.734L560.143 357.073L559.89 348.992C559.749 344.528 553.342 333.385 545.869 333.562Z" fill="#3F3D56"/>
<path d="M526.624 415.111C525.227 415.144 523.874 414.686 522.859 413.836C521.845 412.987 521.252 411.817 521.212 410.582L520.802 397.43C520.763 396.195 521.281 394.997 522.241 394.099C523.201 393.201 524.526 392.678 525.922 392.644C527.319 392.61 528.674 393.068 529.688 393.917C530.703 394.767 531.295 395.938 531.334 397.173L531.744 410.325C531.781 411.56 531.263 412.757 530.303 413.655C529.343 414.552 528.02 415.076 526.624 415.111Z" fill="#3F3D56"/>
<path d="M536.76 365.995L536.571 357.303L539.148 357.247L539.337 365.91L541.673 492.185L539.095 492.249" fill="#3F3D56"/>
<path d="M570.629 386.32L524.309 387.451C519.884 382.679 519.482 362.348 528.716 358.479L532.337 353.04L560.253 351.835L563.515 357.561C568.108 361.018 570.476 381.222 570.629 386.32Z" fill="#E6E6E6"/>
<path d="M553.195 376.569L541.481 376.855C539.221 376.91 537.299 374.316 537.198 371.074C537.097 367.831 538.854 365.147 541.114 365.092L552.828 364.806C555.088 364.751 557.01 367.344 557.111 370.587C557.212 373.83 555.455 376.514 553.195 376.569Z" fill="#36B4F1"/>
<path d="M530.511 435.223L506.366 450.31L502.148 484.325L530.315 476.001L530.511 435.223Z" fill="#E6E6E6"/>
<path d="M643.155 363.275L603.211 364.251L606.935 483.537L646.879 482.562L643.155 363.275Z" fill="#E6E6E6"/>
<path d="M604.168 362.992L612.387 381.31L614.853 465.573L605.569 468.16L604.168 362.992Z" fill="#CCCCCC"/>
<path d="M663.13 330.157C666.022 330.157 668.366 327.377 668.366 323.948C668.366 320.518 666.022 317.738 663.13 317.738C660.239 317.738 657.895 320.518 657.895 323.948C657.895 327.377 660.239 330.157 663.13 330.157Z" fill="#E6E6E6"/>
<path d="M622.195 332.12C614.722 332.308 609.021 343.747 609.158 348.211L609.41 356.292L636.469 355.631L636.217 347.55C636.075 343.086 629.668 331.943 622.195 332.12Z" fill="#3F3D56"/>
<path d="M629.932 368.715L629.743 360.024L632.32 359.967L632.509 368.631L634.845 494.906L632.268 494.969" fill="#3F3D56"/>
<path d="M646.955 384.878L600.635 386.01C599.827 381.692 600.872 361.542 605.042 357.037L608.663 351.599L636.579 350.393L639.841 356.119C648.084 356.713 650.966 376.514 646.955 384.878Z" fill="#E6E6E6"/>
<path d="M629.578 376.942L617.864 377.228C615.604 377.284 613.669 374.282 613.552 370.539C613.435 366.796 615.18 363.705 617.44 363.65L629.154 363.364C631.414 363.309 633.349 366.31 633.466 370.053C633.582 373.796 631.838 376.887 629.578 376.942Z" fill="#36B4F1"/>
<path d="M645.128 426.504L668.471 442.548L670.929 476.699L643.221 467.246L645.128 426.504Z" fill="#E6E6E6"/>
<path d="M481.538 268.759C484.429 268.759 486.773 265.979 486.773 262.55C486.773 259.12 484.429 256.34 481.538 256.34C478.646 256.34 476.302 259.12 476.302 262.55C476.302 265.979 478.646 268.759 481.538 268.759Z" fill="#E6E6E6"/>
<path d="M643.917 218.325C646.809 218.325 649.153 215.545 649.153 212.115C649.153 208.686 646.809 205.906 643.917 205.906C641.026 205.906 638.682 208.686 638.682 212.115C638.682 215.545 641.026 218.325 643.917 218.325Z" fill="#E6E6E6"/>
<path d="M529.47 293.822C527.076 295.232 524.627 291.875 527.066 290.527C529.46 289.117 531.909 292.474 529.47 293.822Z" fill="#E6E6E6"/>
<path d="M618.097 183.634C615.703 185.045 613.254 181.687 615.693 180.339C618.087 178.929 620.536 182.286 618.097 183.634Z" fill="#E6E6E6"/>
<path d="M670.33 248.964L668.807 248.668L669.141 247.321L668.126 247.124L667.792 248.471L666.269 248.177L666.046 249.075L667.569 249.37L667.236 250.717L668.251 250.914L668.585 249.566L670.108 249.862L670.33 248.964Z" fill="#E6E6E6"/>
<path d="M530.749 203.813C534.413 203.813 537.382 201.187 537.382 197.946C537.382 194.706 534.413 192.079 530.749 192.079C527.086 192.079 524.116 194.706 524.116 197.946C524.116 201.187 527.086 203.813 530.749 203.813Z" fill="#FF6584"/>
<path d="M579.265 190.52C571.793 190.708 566.091 202.147 566.228 206.611L566.48 214.692L593.539 214.031L593.287 205.95C593.145 201.486 586.739 190.343 579.265 190.52Z" fill="#3F3D56"/>
<path d="M595.378 496.534L583.086 496.835C581.219 496.919 579.372 496.461 577.827 495.53C576.492 494.652 575.88 493.465 576.148 492.273L578.567 481.521C579.023 479.493 581.833 477.959 585.248 477.876L592.036 477.71C595.451 477.627 598.353 479.021 598.934 481.024L602.02 491.641C602.363 492.818 601.825 494.033 600.547 494.975C599.063 495.98 597.247 496.528 595.378 496.534V496.534Z" fill="#3F3D56"/>
<path d="M600.859 241.966L560.915 242.942L568.443 484.065L608.386 483.09L600.859 241.966Z" fill="#E6E6E6"/>
<path d="M584.876 358.684L584.687 349.993L587.264 349.936L587.453 358.6L589.789 484.875L587.211 484.938" fill="#3F3D56"/>
<path d="M608.723 264.034L554.601 265.356C553.657 260.311 554.878 236.768 559.75 231.504L561.085 225.22L598.455 224.307L600.41 230.431C605.777 234.47 608.544 258.078 608.723 264.034Z" fill="#E6E6E6"/>
<path d="M599.637 225.049L561.073 225.991C559.65 226.026 558.474 225.365 558.448 224.514C558.444 224.392 558.464 224.27 558.508 224.153L564.498 207.831C564.754 207.132 565.775 206.618 566.967 206.589L592.541 205.965C593.733 205.936 594.785 206.398 595.084 207.084L602.084 223.089C602.442 223.908 601.615 224.76 600.237 224.992C600.039 225.025 599.838 225.044 599.637 225.049V225.049Z" fill="#E6E6E6"/>
<path d="M564.877 357.576C564.529 357.444 564.2 357.275 563.897 357.074C563.463 356.805 563.105 356.451 562.849 356.041C562.594 355.63 562.448 355.173 562.423 354.705L561.022 309.82C560.964 307.962 563.021 306.399 565.606 306.336L600.13 305.492C602.716 305.429 604.866 306.89 604.925 308.748L606.326 353.633C606.33 354.102 606.213 354.565 605.983 354.987C605.754 355.41 605.418 355.78 605.002 356.07C604.079 356.735 602.93 357.103 601.741 357.117L567.218 357.96C566.415 357.984 565.617 357.853 564.877 357.576V357.576Z" fill="#3F3D56"/>
<path d="M586.973 222.16L575.26 222.446C572.999 222.502 571.088 220.243 571 217.412C570.911 214.58 572.679 212.232 574.939 212.177L586.653 211.89C588.913 211.835 590.825 214.094 590.913 216.925C591.001 219.756 589.234 222.105 586.973 222.16Z" fill="#36B4F1"/>
</g>
<defs>
<filter id="filter0_d_85_4" x="-1.00192" y="323" width="704.002" height="491.999" filterUnits="userSpaceOnUse" color-interpolation-filters="sRGB">
<feFlood flood-opacity="0" result="BackgroundImageFix"/>
<feColorMatrix in="SourceAlpha" type="matrix" values="0 0 0 0 0 0 0 0 0 0 0 0 0 0 0 0 0 0 127 0" result="hardAlpha"/>
<feOffset dx="5" dy="10"/>
<feGaussianBlur stdDeviation="2.5"/>
<feComposite in2="hardAlpha" operator="out"/>
<feColorMatrix type="matrix" values="0 0 0 0 0 0 0 0 0 0 0 0 0 0 0 0 0 0 0.25 0"/>
<feBlend mode="normal" in2="BackgroundImageFix" result="effect1_dropShadow_85_4"/>
<feBlend mode="normal" in="SourceGraphic" in2="effect1_dropShadow_85_4" result="shape"/>
</filter>
<clipPath id="clip0_85_4">
<rect width="702" height="820" fill="white"/>
</clipPath>
</defs>
</svg>
