<svg width="20" height="20" viewBox="0 0 20 20" fill="none" xmlns="http://www.w3.org/2000/svg">
<path d="M10.614 0.209962C10.4385 0.0734069 10.2224 -0.000732422 10 -0.000732422C9.7776 -0.000732422 9.56154 0.0734069 9.386 0.209962L1.158 6.60996C0.797161 6.89066 0.505244 7.25011 0.304548 7.66086C0.103851 8.07161 -0.000316451 8.5228 7.22133e-07 8.97996V18C7.22133e-07 18.5304 0.210714 19.0391 0.585787 19.4142C0.96086 19.7892 1.46957 20 2 20H6C6.53043 20 7.03914 19.7892 7.41421 19.4142C7.78929 19.0391 8 18.5304 8 18V12H12V18C12 18.5304 12.2107 19.0391 12.5858 19.4142C12.9609 19.7892 13.4696 20 14 20H18C18.5304 20 19.0391 19.7892 19.4142 19.4142C19.7893 19.0391 20 18.5304 20 18V8.97996C20.0001 8.52264 19.8956 8.07134 19.6946 7.66058C19.4935 7.24982 19.2012 6.89045 18.84 6.60996L10.614 0.209962V0.209962Z" fill="#2381FD"/>
</svg>
