<svg width="30" height="27" viewBox="0 0 30 27" fill="none" xmlns="http://www.w3.org/2000/svg">
<path d="M7.784 20.96H18.656V26H0.8V21.32L11.6 5.768H0.8V0.727999H18.656V5.408L7.784 20.96ZM25.5573 26.288C24.4773 26.288 23.5893 25.976 22.8933 25.352C22.2213 24.704 21.8853 23.912 21.8853 22.976C21.8853 22.016 22.2213 21.212 22.8933 20.564C23.5893 19.916 24.4773 19.592 25.5573 19.592C26.6133 19.592 27.4773 19.916 28.1493 20.564C28.8453 21.212 29.1933 22.016 29.1933 22.976C29.1933 23.912 28.8453 24.704 28.1493 25.352C27.4773 25.976 26.6133 26.288 25.5573 26.288Z" fill="#2381FD"/>
</svg>
