<svg width="20" height="20" viewBox="0 0 23 19" fill="none" xmlns="http://www.w3.org/2000/svg">
  <path d="M8.25 13.25V15.125C8.25 15.6223 8.44754 16.0992 8.79917 16.4508C9.15081 16.8025 9.62772 17 10.125 17H19.125C19.6223 17 20.0992 16.8025 20.4508 16.4508C20.8025 16.0992 21 15.6223 21 15.125V3.875C21 3.37772 20.8025 2.90081 20.4508 2.54917C20.0992 2.19754 19.6223 2 19.125 2L10.125 2C9.62772 2 9.15081 2.19754 8.79917 2.54917C8.44754 2.90081 8.25 3.37772 8.25 3.875V5.75" stroke="#1991FF" stroke-width="2.5" stroke-linecap="round" stroke-linejoin="round" />
  <path d="M5.25 13.25L1.5 9.5L5.25 5.75" stroke="#1991FF" stroke-width="2.5" stroke-linecap="round" stroke-linejoin="round" />
  <path d="M14.2969 9.5L1.5 9.5" stroke="#1991FF" stroke-width="2.5" stroke-linecap="round" stroke-linejoin="round" />
</svg>