<svg width="183" height="37" viewBox="0 0 183 37" fill="none" xmlns="http://www.w3.org/2000/svg">
<path d="M7.784 21.96H18.656V27H0.8V22.32L11.6 6.768H0.8V1.728H18.656V6.408L7.784 21.96ZM41.6133 16.632C41.6133 17.208 41.5773 17.808 41.5053 18.432H27.5733C27.6693 19.68 28.0653 20.64 28.7613 21.312C29.4813 21.96 30.3573 22.284 31.3893 22.284C32.9253 22.284 33.9933 21.636 34.5933 20.34H41.1453C40.8093 21.66 40.1973 22.848 39.3093 23.904C38.4453 24.96 37.3533 25.788 36.0333 26.388C34.7133 26.988 33.2373 27.288 31.6053 27.288C29.6373 27.288 27.8853 26.868 26.3493 26.028C24.8133 25.188 23.6133 23.988 22.7493 22.428C21.8853 20.868 21.4533 19.044 21.4533 16.956C21.4533 14.868 21.8733 13.044 22.7133 11.484C23.5773 9.924 24.7773 8.724 26.3133 7.884C27.8493 7.044 29.6133 6.624 31.6053 6.624C33.5493 6.624 35.2773 7.032 36.7893 7.848C38.3013 8.664 39.4773 9.828 40.3173 11.34C41.1813 12.852 41.6133 14.616 41.6133 16.632ZM35.3133 15.012C35.3133 13.956 34.9533 13.116 34.2333 12.492C33.5133 11.868 32.6133 11.556 31.5333 11.556C30.5013 11.556 29.6253 11.856 28.9053 12.456C28.2093 13.056 27.7773 13.908 27.6093 15.012H35.3133ZM51.0169 9.756C51.6169 8.82 52.4449 8.064 53.5009 7.488C54.5569 6.912 55.7929 6.624 57.2089 6.624C58.8649 6.624 60.3649 7.044 61.7089 7.884C63.0529 8.724 64.1089 9.924 64.8769 11.484C65.6689 13.044 66.0649 14.856 66.0649 16.92C66.0649 18.984 65.6689 20.808 64.8769 22.392C64.1089 23.952 63.0529 25.164 61.7089 26.028C60.3649 26.868 58.8649 27.288 57.2089 27.288C55.8169 27.288 54.5809 27 53.5009 26.424C52.4449 25.848 51.6169 25.104 51.0169 24.192V36.576H44.8609V6.912H51.0169V9.756ZM59.8009 16.92C59.8009 15.384 59.3689 14.184 58.5049 13.32C57.6649 12.432 56.6209 11.988 55.3729 11.988C54.1489 11.988 53.1049 12.432 52.2409 13.32C51.4009 14.208 50.9809 15.42 50.9809 16.956C50.9809 18.492 51.4009 19.704 52.2409 20.592C53.1049 21.48 54.1489 21.924 55.3729 21.924C56.5969 21.924 57.6409 21.48 58.5049 20.592C59.3689 19.68 59.8009 18.456 59.8009 16.92ZM81.6425 6.696C83.9465 6.696 85.7945 7.464 87.1865 9C88.5785 10.512 89.2745 12.6 89.2745 15.264V27H83.1545V16.092C83.1545 14.748 82.8065 13.704 82.1105 12.96C81.4145 12.216 80.4785 11.844 79.3025 11.844C78.1265 11.844 77.1905 12.216 76.4945 12.96C75.7985 13.704 75.4505 14.748 75.4505 16.092V27H69.2945V0.36H75.4505V9.612C76.0745 8.724 76.9265 8.016 78.0065 7.488C79.0865 6.96 80.2985 6.696 81.6425 6.696ZM114.072 6.912L101.472 36.54H94.8483L99.4563 26.316L91.2843 6.912H98.1603L102.804 19.476L107.412 6.912H114.072ZM122.454 10.26C123.174 9.156 124.074 8.292 125.154 7.668C126.234 7.02 127.434 6.696 128.754 6.696V13.212H127.062C125.526 13.212 124.374 13.548 123.606 14.22C122.838 14.868 122.454 16.02 122.454 17.676V27H116.298V6.912H122.454V10.26ZM151.533 6.912V27H145.377V24.264C144.753 25.152 143.901 25.872 142.821 26.424C141.765 26.952 140.589 27.216 139.293 27.216C137.757 27.216 136.401 26.88 135.225 26.208C134.049 25.512 133.137 24.516 132.489 23.22C131.841 21.924 131.517 20.4 131.517 18.648V6.912H137.637V17.82C137.637 19.164 137.985 20.208 138.681 20.952C139.377 21.696 140.313 22.068 141.489 22.068C142.689 22.068 143.637 21.696 144.333 20.952C145.029 20.208 145.377 19.164 145.377 17.82V6.912H151.533ZM164.127 27.288C162.375 27.288 160.815 26.988 159.447 26.388C158.079 25.788 156.999 24.972 156.207 23.94C155.415 22.884 154.971 21.708 154.875 20.412H160.959C161.031 21.108 161.355 21.672 161.931 22.104C162.507 22.536 163.215 22.752 164.055 22.752C164.823 22.752 165.411 22.608 165.819 22.32C166.251 22.008 166.467 21.612 166.467 21.132C166.467 20.556 166.167 20.136 165.567 19.872C164.967 19.584 163.995 19.272 162.651 18.936C161.211 18.6 160.011 18.252 159.051 17.892C158.091 17.508 157.263 16.92 156.567 16.128C155.871 15.312 155.523 14.22 155.523 12.852C155.523 11.7 155.835 10.656 156.459 9.72C157.107 8.76 158.043 8.004 159.267 7.452C160.515 6.9 161.991 6.624 163.695 6.624C166.215 6.624 168.195 7.248 169.635 8.496C171.099 9.744 171.939 11.4 172.155 13.464H166.467C166.371 12.768 166.059 12.216 165.531 11.808C165.027 11.4 164.355 11.196 163.515 11.196C162.795 11.196 162.243 11.34 161.859 11.628C161.475 11.892 161.283 12.264 161.283 12.744C161.283 13.32 161.583 13.752 162.183 14.04C162.807 14.328 163.767 14.616 165.063 14.904C166.551 15.288 167.763 15.672 168.699 16.056C169.635 16.416 170.451 17.016 171.147 17.856C171.867 18.672 172.239 19.776 172.263 21.168C172.263 22.344 171.927 23.4 171.255 24.336C170.607 25.248 169.659 25.968 168.411 26.496C167.187 27.024 165.759 27.288 164.127 27.288ZM178.909 27.288C177.829 27.288 176.941 26.976 176.245 26.352C175.573 25.704 175.237 24.912 175.237 23.976C175.237 23.016 175.573 22.212 176.245 21.564C176.941 20.916 177.829 20.592 178.909 20.592C179.965 20.592 180.829 20.916 181.501 21.564C182.197 22.212 182.545 23.016 182.545 23.976C182.545 24.912 182.197 25.704 181.501 26.352C180.829 26.976 179.965 27.288 178.909 27.288Z" fill="#2381FD"/>
</svg>
